{"title":"Jackass 2010 CAM XviD-danytheone  (BX)","uid":5910425,"size":1498744437,"categoryP":"video","categoryS":"movies","magnet":"?xt=urn:btih:1dbcf0d42d188b8986a385329910abbe3ec8627c&amp;dn=Jackass+2010+CAM+XviD-danytheone++%28BX%29&amp;tr=udp%3A%2F%2Ftracker.openbittorrent.com%3A80&amp;tr=udp%3A%2F%2Fopen.demonii.com%3A1337&amp;tr=udp%3A%2F%2Ftracker.coppersurfer.tk%3A6969&amp;tr=udp%3A%2F%2Fexodus.desync.com%3A6969","seeders":0,"leechers":0,"uploader":"Kill3rK","files":3,"time":1288032144,"description":"Clean Scene Releases   &lt;a href=&quot; http://bitxtre.me/&quot; rel=&quot;nofollow&quot; target=&quot;_NEW&quot;&gt; http://bitxtre.me/&lt;/a&gt;\n\nThis release may have &quot;rar files&quot;, thats how they are uploaded to &quot;top sites&quot; if and when a &quot;scene&quot; group upload to those top sites the files that are originally &quot;spread&quot; to other &quot;top sites&quot; aka &quot;affill sites&quot; can and do make there way to p2p (like here on TPB). \n\nIf You need more help understanding the scene Google it :) \n\n\nMost of my uploads are rars if you dont want the torrent dont comment or download simple as that.\n\n-------------------------------------------------------------------------------------\n                                   nfo\n\n\n\nFormat: AVI - http://www.imdb.com/title/tt1116184/\nFormat/Info: Audio Video Interleave\nFile size: 1.37 GiB\nDuration: 1h 32mn\nOverall bit rate: 2 124 Kbps\nWriting application: Lavf52.52.0\nWriting library: VirtualDub build 32839/release\n\nVideo\nFormat: MPEG-4 Visual\nFormat profile: Streaming Video@L1\nFormat settings, BVOP: Yes\nFormat settings, QPel: No\nFormat settings, GMC: No warppoints\nFormat settings, Matrix: Default (H.263)\nMuxing mode: Packed bitstream\nCodec ID: XVID\nCodec ID/Hint: XviD\nDuration: 1h 32mn\nBit rate: 1 984 Kbps\nWidth: 602 pixels\nHeight: 328 pixels\nDisplay aspect ratio: 16/9\nFrame rate: 24.000 fps\nResolution: 24 bits\nColorimetry: 4:2:0\nScan type: Progressive\nBits/(Pixel*Frame): 0.419\nStream size: 1.28 GiB (93%)\nWriting library: XviD 1.2.1 (UTC 2008-12-04)\n\nAudio\nFormat: MPEG Audio\nFormat version: Version 1\nFormat profile: Layer 3\nCodec ID: 55\nCodec ID/Hint: MP3\nDuration: 1h 32mn\nBit rate mode: Constant\nBit rate: 128 Kbps\nChannel(s): 2 channels\nSampling rate: 48.0 KHz\nResolution: 16 bits\nStream size: 84.5 MiB (6%)\nAlignment: Aligned on interleaves\nInterleave, duration: 24 ms (0.58 video frame)\nInterleave, preload duration: 504 ms\nWriting library: LAME3.98 \n","torrent":{"xt":"urn:btih:1dbcf0d42d188b8986a385329910abbe3ec8627c","amp;dn":"Jackass+2010+CAM+XviD-danytheone++%28BX%29","amp;tr":["udp%3A%2F%2Ftracker.openbittorrent.com%3A80","udp%3A%2F%2Fopen.demonii.com%3A1337","udp%3A%2F%2Ftracker.coppersurfer.tk%3A6969","udp%3A%2F%2Fexodus.desync.com%3A6969"],"infoHash":"1dbcf0d42d188b8986a385329910abbe3ec8627c","infoHashBuffer":{"type":"Buffer","data":[29,188,240,212,45,24,139,137,134,163,133,50,153,16,171,190,62,200,98,124]},"announce":[],"urlList":[]}}